<svg width="63" height="26" viewBox="0 0 63 26" fill="none" xmlns="http://www.w3.org/2000/svg">
<path fill-rule="evenodd" clip-rule="evenodd" d="M41.19 1.20984C41.6259 0.505742 42.5492 0.288818 43.2522 0.725326L62.0112 12.3724C62.4634 12.6531 62.7329 13.1531 62.7193 13.6857C62.7056 14.2184 62.4109 14.7038 61.9449 14.961L43.1859 25.3139C42.4614 25.7138 41.5505 25.4497 41.1513 24.7242C40.752 23.9986 41.0157 23.0863 41.7401 22.6865L55.4008 15.1473H1.48946C0.662271 15.1473 -0.00830078 14.4757 -0.00830078 13.6473C-0.00830078 12.8188 0.662271 12.1473 1.48946 12.1473H55.9635L41.6738 3.27509C40.9708 2.83858 40.7542 1.91394 41.19 1.20984Z" fill="white"/>
</svg>
