<svg width="80" height="80" viewBox="0 0 80 80" fill="none" xmlns="http://www.w3.org/2000/svg">
<path d="M38.3581 74.9982C36.5827 74.9982 35.0934 74.724 34.1768 74.2545C31.2317 73.4858 28.8806 72.7341 26.8032 72.0693C21.5263 70.3804 18.3418 69.3614 12.0349 70.1753C11.2891 70.273 10.6058 69.7412 10.5104 68.9914C10.415 68.2422 10.9428 67.5553 11.6881 67.4594C18.5946 66.5692 22.1903 67.7195 27.6304 69.461C29.7131 70.1283 32.072 70.8836 35.0215 71.6468C35.1478 71.6798 35.2669 71.7286 35.3793 71.797C36.7149 72.5975 42.8074 72.6347 47.4284 69.7039L71.1995 54.6091C71.2366 54.5859 71.2736 54.5639 71.3106 54.5468C71.9059 54.2434 71.9958 53.7091 71.9958 53.4178C71.9958 52.9813 71.7814 52.4024 71.1801 52.0947C70.0358 51.5079 68.0521 52.1069 65.8776 53.6956C65.8077 53.7463 65.7336 53.7915 65.6559 53.8263L52.9217 59.8387C52.7601 59.915 52.5907 59.9566 52.4212 59.9663C51.9523 60.4847 51.2963 60.9481 50.4101 61.2968C40.5353 65.8218 34.2424 63.3257 26.4306 59.307C25.7607 58.9626 25.4965 58.1371 25.839 57.4636C26.1816 56.7908 27.0028 56.5246 27.6721 56.8689C36.2622 61.2889 41.168 62.5315 49.3146 58.7886C49.3401 58.7763 49.365 58.7647 49.3923 58.755C49.9238 58.5498 50.7941 58.0919 50.6751 57.3189C50.6034 56.8536 50.2098 56.4543 49.8011 56.4305C47.8428 56.3132 46.2758 56.2839 44.894 56.2583C39.4398 56.1569 37.3977 56.1179 30.5247 50.9975L24.6088 46.5915C23.9395 46.0927 21.3715 45.7013 18.8526 46.7301L7.93434 51.191C7.23768 51.4749 6.4414 51.1385 6.15959 50.4376C5.87535 49.7372 6.21183 48.9392 6.90849 48.6534L17.8268 44.1925C21.1169 42.8486 24.6829 43.2382 26.2323 44.3904L32.1476 48.7964C38.3222 53.3941 39.7258 53.4197 44.9462 53.5193C46.3535 53.5468 47.9496 53.5761 49.9642 53.6976C51.5488 53.7916 52.9465 55.0299 53.3181 56.6265L64.3846 51.4005C68.5226 48.4209 71.1939 49.0235 72.4219 49.6535C73.8444 50.3832 74.7263 51.8248 74.7246 53.4197C74.7246 54.9357 73.9344 56.2546 72.6109 56.9568L48.8879 72.0204C45.5358 74.147 41.5029 75 38.3632 75L38.3581 74.9982ZM61.3611 48.7023C61.0416 48.7023 60.7221 48.5912 60.4634 48.364C59.0506 47.1215 57.5005 46.4585 56.8507 46.3839C55.8443 46.2685 55.5017 46.2551 55.387 46.2587L55.3754 46.2624C55.2527 46.3058 55.0462 46.3803 54.7055 46.437C54.0222 46.55 53.3644 46.1336 53.1718 45.4662C52.5098 43.171 49.3411 42.0287 47.2445 41.2734C47.0944 41.2209 46.9523 41.1678 46.8144 41.1171C44.2859 41.1189 40.9922 42.0598 39.3995 43.9092C38.9519 44.4294 38.1908 44.5351 37.6187 44.1553C37.0307 43.7663 36.373 43.5258 35.6642 43.4433C34.2551 43.2809 32.8362 43.8036 31.8706 44.8422C31.3567 45.3941 30.4942 45.4235 29.9458 44.9069C29.3967 44.3904 29.3675 43.5233 29.8814 42.972C31.4345 41.3009 33.7139 40.4594 35.9776 40.7219C36.7217 40.808 37.4511 41.0113 38.1309 41.3203C40.2251 39.4811 43.3203 38.5653 45.9757 38.4029C46.4483 36.4014 47.0909 34.0287 47.7858 32.418C50.2755 25.9421 54.2076 19.8357 59.4748 14.2674C59.9929 13.7191 60.8547 13.6977 61.4021 14.2179C61.9469 14.7387 61.9687 15.6052 61.4507 16.1554C56.4246 21.4693 52.6795 27.2821 50.318 33.4306C50.3107 33.4484 50.3046 33.4679 50.2949 33.4856C49.7987 34.6304 49.2283 36.5183 48.6658 38.874C50.8396 39.6684 53.919 40.9323 55.3094 43.5188C55.7103 43.5072 56.2533 43.5542 57.1644 43.6598C58.6045 43.8259 60.6526 44.8865 62.2602 46.2988C62.8269 46.7958 62.8852 47.6628 62.389 48.2319C62.1199 48.5408 61.7427 48.6996 61.3631 48.6996L61.3611 48.7023ZM55.9493 36.6073C54.8457 36.6073 53.7032 36.429 52.5388 36.0693C51.819 35.8483 51.4157 35.0814 51.6356 34.3573C51.8555 33.6331 52.619 33.2283 53.3387 33.4494C55.6455 34.1613 57.7149 33.9696 59.4939 32.8821C62.2659 31.1859 64.2727 27.2727 65.3004 21.5638C65.5051 20.425 65.5555 19.0885 65.6138 17.5407C65.6995 15.2639 65.7991 12.5737 66.4332 9.40779C63.231 11.1278 60.0429 11.7873 57.1482 12.3873C53.7554 13.0901 50.826 13.6964 48.8872 15.8755C46.0726 19.0414 43.4135 23.8565 46.7419 28.8303C47.1628 29.458 46.997 30.3091 46.372 30.7316C45.7477 31.1541 44.9004 30.9881 44.4801 30.3598C42.5333 27.4527 40.2564 21.4678 46.8548 14.0505C49.3949 11.196 52.8928 10.4718 56.5996 9.70494C60.2822 8.94172 64.0898 8.15528 67.7668 5.28734C68.2357 4.92098 68.8856 4.9039 69.3746 5.24216C69.8629 5.58042 70.0773 6.19894 69.9042 6.76983C68.5801 11.133 68.4459 14.7447 68.3372 17.6467C68.2746 19.2977 68.2224 20.7242 67.9831 22.0545C66.7957 28.6482 64.4165 33.0791 60.9108 35.2235C59.4082 36.1431 57.7306 36.6071 55.9511 36.6071L55.9493 36.6073Z" fill="#627A9E"/>
</svg>
