<svg width="19" height="22" viewBox="0 0 19 22" fill="none" xmlns="http://www.w3.org/2000/svg">
<path d="M17.0015 19.9995H6.00118V5.9995H17.0015M17.0015 3.99951H6.00118C5.47073 3.99951 4.962 4.21022 4.58692 4.58529C4.21183 4.96036 4.00111 5.46907 4.00111 5.9995V19.9995C4.00111 20.5299 4.21183 21.0386 4.58692 21.4137C4.962 21.7888 5.47073 21.9995 6.00118 21.9995H17.0015C17.532 21.9995 18.0407 21.7888 18.4158 21.4137C18.7909 21.0386 19.0016 20.5299 19.0016 19.9995V5.9995C19.0016 5.46907 18.7909 4.96036 18.4158 4.58529C18.0407 4.21022 17.532 3.99951 17.0015 3.99951ZM14.0014 -0.000488281H2.00104C1.47059 -0.000488281 0.961868 0.210225 0.586783 0.585297C0.211697 0.960369 0.000976563 1.46908 0.000976562 1.99951V15.9995H2.00104V1.99951H14.0014V-0.000488281Z" fill="#627A9E"/>
</svg>
