<svg width="200" height="200" viewBox="0 0 200 200" fill="none" xmlns="http://www.w3.org/2000/svg">
<mask id="mask0_253_27" style="mask-type:luminance" maskUnits="userSpaceOnUse" x="19" y="119" width="180" height="68">
<path d="M19.9219 119.531H198.398V186.328H19.9219V119.531Z" fill="white"/>
</mask>
<g mask="url(#mask0_253_27)">
<path d="M24.4687 185.949C22.1463 185.946 20.2632 184.065 20.2573 181.742V138.285C20.3016 137.084 20.8143 135.949 21.6855 135.124C24.8426 132.255 54.4996 107.059 102.506 128.404L103.579 128.886L134.792 129.971C135.295 129.995 135.791 130.103 136.26 130.293C137.902 131.027 142.903 133.625 143.753 138.56C155.802 132.174 183.574 118.904 194.031 126.385C196.446 128.106 199.085 131.623 197.96 138.508C197.699 139.762 196.933 140.853 195.844 141.526L127.25 179.25C127.09 179.339 126.925 179.417 126.756 179.487C125.275 180.061 111.413 184.943 82.5759 179.256C54.9544 173.8 47.4958 172.343 26.697 185.31C26.0271 185.728 25.2535 185.947 24.4646 185.947L24.4687 185.949ZM27.8424 139.863V175.752C47.6088 164.604 57.7986 166.612 84.0728 171.782C109.859 176.87 122.556 172.888 123.905 172.424L190.62 135.702C190.684 134.143 190.339 133.093 189.605 132.565C185.107 129.339 166.654 134.929 146.746 145.577C136.544 150.993 133.957 151.533 132.138 148.606C131.085 146.899 131.531 144.667 133.159 143.495C135.712 141.635 136.308 140.321 136.263 139.891C136.194 139.225 134.989 138.169 133.778 137.533L102.584 136.46C102.094 136.445 101.612 136.334 101.166 136.132L99.4449 135.359C59.523 117.623 33.5113 135.365 27.8746 139.874L27.8424 139.863Z" fill="#627A9E"/>
</g>
<mask id="mask1_253_27" style="mask-type:luminance" maskUnits="userSpaceOnUse" x="1" y="123" width="28" height="71">
<path d="M1.59766 123.438H28.1234V193.75H1.59766V123.438Z" fill="white"/>
</mask>
<g mask="url(#mask1_253_27)">
<path d="M17.7268 193.746H11.8689C6.26895 193.74 1.73418 189.2 1.72949 183.602V133.879C1.73407 128.279 6.26895 123.741 11.8689 123.735H17.733C23.3314 123.741 27.8678 128.279 27.8709 133.879V183.606C27.8648 189.206 23.3252 193.742 17.7268 193.745V193.746ZM11.8689 131.348C11.1975 131.348 10.5536 131.615 10.0791 132.089C9.60457 132.564 9.33906 133.208 9.33906 133.879V183.606C9.33906 184.277 9.60457 184.921 10.0791 185.395C10.5536 185.87 11.1976 186.137 11.8689 186.137H17.733C18.4044 186.137 19.0468 185.87 19.5213 185.395C19.9959 184.921 20.2629 184.277 20.2629 183.606V133.879C20.2629 133.208 19.9959 132.564 19.5213 132.089C19.0468 131.615 18.4044 131.348 17.733 131.348H11.8689Z" fill="#627A9E"/>
</g>
<path d="M135.383 150.406H95.4842C93.3831 150.406 91.6802 148.703 91.6802 146.602C91.6802 144.501 93.3831 142.798 95.4842 142.798H135.383C137.484 142.798 139.187 144.501 139.187 146.602C139.187 148.703 137.484 150.406 135.383 150.406Z" fill="#627A9E"/>
<path d="M120.43 119.977C89.0133 119.977 63.5469 94.5082 63.5469 63.0938C63.5469 31.6773 89.0137 6.21094 120.43 6.21094C151.845 6.21094 177.312 31.6777 177.312 63.0938C177.279 94.4949 151.832 119.941 120.43 119.977ZM120.43 13.832C100.499 13.8336 82.5328 25.8422 74.9063 44.2566C67.2797 62.6711 71.502 83.866 85.5965 97.9559C99.6926 112.046 120.887 116.257 139.3 108.628C157.713 100.997 169.713 83.025 169.709 63.0965C169.668 35.8977 147.627 13.8621 120.428 13.827L120.43 13.832Z" fill="#627A9E"/>
<path d="M123.645 59.0977C130.858 61.6459 133.766 64.9785 133.766 70.4289C133.766 75.2887 130.668 79.5063 124.965 81.1816C123.79 81.528 122.981 82.6068 122.979 83.8321V85.0437C122.979 86.5802 121.734 87.8253 120.198 87.8253H119.795C119.058 87.8253 118.35 87.5324 117.828 87.0106C117.306 86.4887 117.013 85.7807 117.013 85.0437V84.6012C117.009 83.2004 115.965 82.0209 114.575 81.847C112.69 81.6074 110.838 81.1649 109.048 80.5271C107.693 80.0403 106.93 78.6014 107.287 77.2052L107.707 75.5756C107.904 74.8081 108.42 74.1611 109.125 73.7995C109.83 73.4363 110.657 73.392 111.395 73.6774C113.701 74.5609 116.145 75.0232 118.614 75.043C122.056 75.043 124.432 73.7109 124.432 71.2848C124.432 68.9899 122.493 67.5266 118.011 66.0114C111.528 63.8309 107.11 60.802 107.11 54.9211C107.11 50.1465 110.122 46.3137 115.401 44.6274C116.557 44.2673 117.346 43.1992 117.351 41.9876V41.1621C117.351 40.4236 117.645 39.7156 118.167 39.1937C118.689 38.6719 119.397 38.3789 120.134 38.3789H120.508C122.044 38.3789 123.289 39.624 123.289 41.1621C123.3 42.5736 124.361 43.7561 125.763 43.9209C127.084 44.0811 128.387 44.3604 129.658 44.754C131.05 45.2088 131.843 46.6721 131.467 48.0865L131.105 49.498C130.907 50.2518 130.403 50.8881 129.716 51.2543C129.03 51.622 128.221 51.6861 127.484 51.4313C125.583 50.8072 123.593 50.4929 121.591 50.502C117.65 50.502 116.382 52.2232 116.382 53.8986C116.382 55.896 118.504 57.1701 123.651 59.1095" fill="#627A9E"/>
</svg>
