<svg width="180" height="180" viewBox="0 0 180 180" fill="none" xmlns="http://www.w3.org/2000/svg">
<path d="M142.963 41.1082C142.963 39.6319 144.147 38.4289 145.622 38.4055H154.199C155.682 38.4289 156.878 39.625 156.902 41.1082C156.856 42.5817 155.673 43.7655 154.199 43.8094H145.622C144.156 43.7641 142.985 42.5735 142.963 41.1082Z" fill="#627A9E"/>
<path d="M102.35 44.0262H93.7729C92.2898 44.0042 91.0937 42.8067 91.0703 41.3249C91.0703 39.8322 92.2802 38.6223 93.7729 38.6223H102.35C103.842 38.6223 105.052 39.8322 105.052 41.3249C105.052 42.8163 103.842 44.0262 102.35 44.0262Z" fill="#627A9E"/>
<path d="M50.242 44.0262H41.6645H41.6659C40.1992 43.9809 39.0292 42.7916 39.0059 41.3249C39.0059 39.8487 40.1896 38.6457 41.6659 38.6223H50.2433H50.242C51.7416 38.6223 52.9638 39.8253 52.9872 41.3249C52.9638 42.8232 51.7416 44.0262 50.242 44.0262Z" fill="#627A9E"/>
<path d="M76.3206 44.0262H67.7432C66.2765 43.9809 65.1064 42.7916 65.0845 41.3249C65.0845 39.8487 66.2669 38.6457 67.7432 38.6223H76.3206C77.812 38.6223 79.0219 39.8322 79.0219 41.3249C78.9985 42.8067 77.8024 44.0042 76.3206 44.0262Z" fill="#627A9E"/>
<path d="M119.721 38.4082H128.299C129.798 38.4082 131.02 39.6112 131.044 41.1108C131.09 41.8524 130.834 42.583 130.332 43.1323C129.831 43.6816 129.128 44.0044 128.384 44.0263H119.806H119.808C119.078 43.9824 118.397 43.6501 117.915 43.1035C117.432 42.5556 117.187 41.8387 117.234 41.1108C117.23 39.6977 118.314 38.5208 119.721 38.4082Z" fill="#627A9E"/>
<path d="M84.5965 69.2858V79.9645C84.5965 82.111 85.4424 84.171 86.953 85.6968C88.4623 87.2225 90.5126 88.0904 92.6589 88.1138H103.38C105.529 88.1014 107.587 87.2376 109.099 85.7091C110.611 84.1807 111.454 82.1137 111.443 79.9646V69.2859C111.443 67.1436 110.596 65.089 109.084 63.5702C107.573 62.0513 105.523 61.1917 103.38 61.1807H92.6589C90.5166 61.1917 88.4662 62.0513 86.9541 63.5702C85.4435 65.0891 84.5965 67.1434 84.5965 69.2858ZM89.9578 69.2858H89.9564C89.9564 67.7931 91.1663 66.5846 92.6591 66.5846H103.38C104.104 66.5722 104.803 66.8524 105.318 67.3605C105.834 67.8686 106.126 68.5621 106.126 69.2858V79.9645C106.126 80.6883 105.834 81.3832 105.318 81.8899C104.803 82.398 104.104 82.6782 103.38 82.6658H92.6591C91.1663 82.6658 89.9564 81.4573 89.9564 79.9645L89.9578 69.2858Z" fill="#627A9E"/>
<path d="M98.0191 71.9438C99.5119 71.9438 100.722 73.1537 100.722 74.6465C100.722 76.1379 99.5119 77.3477 98.0191 77.3477C96.5277 77.3477 95.3179 76.1379 95.3179 74.6465C95.3179 73.1537 96.5277 71.9438 98.0191 71.9438Z" fill="#627A9E"/>
<path d="M125.81 69.2859V79.9647C125.81 82.118 126.663 84.1848 128.182 85.712C129.701 87.2391 131.762 88.1015 133.915 88.1139H144.594C146.747 88.1015 148.809 87.2391 150.328 85.712C151.847 84.1849 152.699 82.118 152.699 79.9647V69.2859C152.699 67.1587 151.863 65.1168 150.372 63.5991C148.879 62.083 146.85 61.2136 144.723 61.1807H134.045C131.872 61.1464 129.778 61.9841 128.229 63.5084C126.681 65.0328 125.81 67.1134 125.81 69.286L125.81 69.2859ZM131.171 69.2859H131.17C131.193 67.7863 132.416 66.5847 133.915 66.5847H144.594C145.314 66.5723 146.008 66.8538 146.518 67.3619C147.026 67.8714 147.308 68.5663 147.295 69.2859V79.9647C147.308 80.6843 147.026 81.3791 146.518 81.8887C146.008 82.3968 145.314 82.6783 144.594 82.6659H134.044C132.545 82.6673 131.322 81.4643 131.299 79.9647L131.171 69.2859Z" fill="#627A9E"/>
<path d="M62.0369 61.179H51.3156C49.1733 61.1899 47.1229 62.0496 45.6122 63.5685C44.1016 65.0873 43.2529 67.1418 43.2529 69.2842V79.9629C43.2529 82.1094 44.1003 84.1694 45.6095 85.6951C47.1187 87.2208 49.1691 88.0888 51.3153 88.1121H62.0366C64.179 88.0888 66.2251 87.2195 67.7288 85.6924C69.2311 84.1653 70.0688 82.1054 70.0565 79.963V69.2843C70.0565 67.1488 69.2147 65.1014 67.7136 63.5823C66.2113 62.0648 64.1723 61.2009 62.0369 61.179ZM64.7381 79.9629H64.7395C64.7395 81.4557 63.5297 82.6642 62.0369 82.6642H51.3156C49.8242 82.6642 48.6144 81.4557 48.6144 79.9629V69.2842C48.6144 67.7915 49.8242 66.583 51.3156 66.583H62.0369C63.5297 66.583 64.7395 67.7915 64.7395 69.2842L64.7381 79.9629Z" fill="#627A9E"/>
<path d="M125.81 113.031V123.795C125.81 125.937 126.666 127.99 128.189 129.497C129.712 131.003 131.773 131.837 133.915 131.815H144.594C146.754 131.86 148.843 131.038 150.391 129.53C151.94 128.022 152.817 125.956 152.828 123.795V113.031C152.817 110.889 151.958 108.837 150.439 107.326C148.92 105.816 146.865 104.967 144.723 104.967H134.044C131.876 104.922 129.78 105.751 128.231 107.267C126.682 108.785 125.809 110.862 125.81 113.031ZM131.172 113.031H131.17C131.217 111.555 132.439 110.39 133.915 110.415H144.594C145.303 110.391 145.991 110.656 146.5 111.149C147.008 111.642 147.297 112.321 147.295 113.031V123.795C147.308 124.514 147.026 125.209 146.518 125.719C146.009 126.227 145.314 126.508 144.594 126.496H134.044C132.545 126.497 131.323 125.294 131.299 123.795L131.172 113.031Z" fill="#627A9E"/>
<path d="M84.5967 113.031V123.795C84.6077 125.926 85.4619 127.965 86.9725 129.468C88.4845 130.971 90.5279 131.815 92.6594 131.815H103.381C105.515 131.826 107.566 130.985 109.08 129.48C110.593 127.975 111.443 125.929 111.443 123.795V113.031C111.443 110.891 110.595 108.841 109.081 107.329C107.569 105.817 105.519 104.967 103.381 104.967H92.6593C90.5211 104.967 88.4694 105.817 86.9573 107.329C85.4453 108.841 84.5967 110.891 84.5967 113.031ZM89.958 113.031H89.9567C89.969 112.325 90.2602 111.653 90.7655 111.163C91.2723 110.672 91.9534 110.402 92.6593 110.415H103.381C104.093 110.391 104.785 110.655 105.302 111.147C105.817 111.638 106.115 112.317 106.126 113.031V123.795C106.126 124.518 105.835 125.212 105.318 125.72C104.803 126.228 104.104 126.508 103.381 126.496H92.6593C91.1665 126.496 89.9567 125.287 89.9567 123.795L89.958 113.031Z" fill="#627A9E"/>
<mask id="mask0_253_49" style="mask-type:luminance" maskUnits="userSpaceOnUse" x="1" y="9" width="178" height="162">
<path d="M1.43799 9.14062H178.559V170.859H1.43799V9.14062Z" fill="white"/>
</mask>
<g mask="url(#mask0_253_49)">
<path d="M1.43803 131.513C1.28971 142.596 5.91483 153.208 14.1326 160.646C22.3518 168.083 33.3712 171.628 44.3849 170.378C55.3987 169.128 65.3426 163.204 71.6858 154.114H167.796C170.647 154.125 173.385 153 175.406 150.989C177.424 148.977 178.56 146.244 178.56 143.393V27.5989C178.549 24.7466 177.412 22.0151 175.395 19.9992C173.379 17.9832 170.647 16.8448 167.796 16.8338H154.372V12.5451C154.47 11.776 154.232 11.0015 153.719 10.4192C153.206 9.83695 152.467 9.50321 151.692 9.50321C150.916 9.50321 150.178 9.83692 149.665 10.4192C149.152 11.0015 148.915 11.776 149.012 12.5451V16.8338H127.57V12.5451H127.568C127.604 11.8062 127.335 11.0866 126.824 10.551C126.313 10.0168 125.606 9.71471 124.867 9.71471C123.391 9.73806 122.207 10.9411 122.208 12.4173V16.7061H100.766V12.4173H100.765C100.765 11.6923 100.475 10.9987 99.9584 10.4906C99.4421 9.9825 98.7444 9.70371 98.0193 9.71471C96.5444 9.73806 95.3607 10.9411 95.3607 12.4173V16.7061H73.9182V12.4173C74.0157 11.6469 73.7781 10.8724 73.2645 10.2901C72.7522 9.70922 72.0134 9.37549 71.2375 9.37549C70.4616 9.37549 69.7227 9.7092 69.2105 10.2901C68.6969 10.8724 68.4593 11.6469 68.5568 12.4173V16.7061H47.1143V12.4173C47.2118 11.6469 46.9729 10.8724 46.4606 10.2901C45.947 9.70922 45.2096 9.37549 44.4337 9.37549C43.6578 9.37549 42.9189 9.7092 42.4067 10.2901C41.8931 10.8724 41.6555 11.6469 41.753 12.4173V16.7061L28.2864 16.7047C25.4204 16.717 22.6765 17.8665 20.6578 19.9017C18.6391 21.9356 17.5116 24.6889 17.5226 27.5552V100.121C7.41378 107.38 1.42632 119.069 1.44003 131.513L1.43803 131.513ZM74.9005 148.668C80.9442 136.674 80.3195 122.399 73.2485 110.98C66.1789 99.5615 53.6791 92.6386 40.2484 92.7018C34.269 92.7362 28.3859 94.207 23.0946 96.9906V44.0242H24.3814H24.38C25.8631 44.0022 27.0593 42.8047 27.0826 41.3229C27.0826 39.8301 25.8727 38.6203 24.38 38.6203H22.879V27.5555C22.879 26.13 23.4516 24.765 24.4679 23.7653C25.4827 22.7656 26.8574 22.2149 28.283 22.2382H41.6642V26.8704C41.8345 28.2203 42.9839 29.2325 44.3435 29.2325C45.7044 29.2325 46.8539 28.2204 47.0242 26.8704V22.5817H68.4667L68.468 26.8704C68.6383 28.2203 69.7878 29.2325 71.1487 29.2325C72.5083 29.2325 73.6577 28.2204 73.828 26.8704V22.5817H95.2705L95.2719 26.8704C95.2952 28.322 96.479 29.4865 97.9306 29.4865C98.6474 29.5099 99.3437 29.2462 99.8669 28.7559C100.389 28.2657 100.696 27.5873 100.718 26.8704V22.5817H122.161V26.8704C122.184 28.322 123.368 29.4865 124.82 29.4865C126.296 29.5099 127.518 28.3453 127.565 26.8704V22.5817H149.007L149.009 26.8704C149.179 28.2203 150.327 29.2325 151.688 29.2325C153.049 29.2325 154.198 28.2204 154.369 26.8704V22.5817H167.793C169.123 22.6105 170.394 23.1379 171.355 24.0593C172.316 24.9808 172.896 26.2278 172.981 27.5557V38.406H171.652C170.16 38.406 168.95 39.6159 168.95 41.1086C168.974 42.5904 170.17 43.7866 171.652 43.8099H172.981V143.393C172.982 144.819 172.418 146.187 171.414 147.199C170.41 148.211 169.047 148.785 167.621 148.796L74.9005 148.668ZM6.75366 131.513C6.75366 122.644 10.2763 114.138 16.5464 107.864C22.8169 101.591 31.3215 98.0646 40.1918 98.0618C49.0607 98.0576 57.5681 101.576 63.8439 107.844C70.12 114.111 73.6493 122.615 73.656 131.483C73.6642 140.353 70.1486 148.863 63.8836 155.141C57.6188 161.42 49.118 164.952 40.2481 164.964C31.3725 164.964 22.8594 161.44 16.5795 155.169C10.2995 148.897 6.76596 140.388 6.75366 131.512V131.513Z" fill="#627A9E"/>
</g>
<path d="M22.8832 128.812H37.5075V110.714C37.5075 109.223 38.7173 108.013 40.2101 108.013C41.7015 108.013 42.9114 109.223 42.9114 110.714V131.514C42.9114 132.99 41.7276 134.193 40.2527 134.216H22.8834C21.392 134.216 20.1821 133.007 20.1821 131.514C20.1821 130.022 21.3918 128.812 22.8832 128.812Z" fill="#627A9E"/>
<path d="M139.405 115.731C140.503 115.731 141.49 116.394 141.906 117.409C142.321 118.424 142.082 119.588 141.3 120.359C140.519 121.128 139.35 121.348 138.341 120.916C137.333 120.485 136.686 119.487 136.704 118.389C136.704 117.677 136.99 116.994 137.498 116.494C138.006 115.994 138.693 115.72 139.405 115.731Z" fill="#627A9E"/>
</svg>
