<svg width="180" height="180" viewBox="0 0 180 180" fill="none" xmlns="http://www.w3.org/2000/svg">
<path d="M157.12 77.6004C152.733 -7.74842 31.5459 -8.29686 26.3146 76.9055C23.2906 77.22 20.4878 78.6413 18.4484 80.8964C16.4091 83.1528 15.2748 86.082 15.2651 89.1237V112.003C15.2981 115.068 16.4654 118.012 18.5432 120.266C20.6209 122.519 23.4608 123.923 26.5138 124.204C29.5666 124.485 32.6141 123.623 35.0694 121.786C36.9302 125.398 39.7484 128.426 43.2158 130.542C46.6834 132.658 50.6658 133.78 54.7281 133.786H58.6624C59.6416 133.786 60.5809 133.397 61.2731 132.705C61.9652 132.013 62.3538 131.075 62.3525 130.096V70.9875C62.3538 70.0098 61.9652 69.0704 61.2731 68.3783C60.5809 67.6861 59.6416 67.2975 58.6624 67.2975H54.7281C50.6591 67.303 46.671 68.4291 43.2007 70.5508C39.7304 72.6739 36.9109 75.7103 35.0529 79.3304C34.597 78.9871 34.1191 78.6767 33.6192 78.3993C36.6707 2.25086 144.857 1.0239 149.709 76.9573V76.9587C147.977 77.3528 146.351 78.1178 144.946 79.2027C143.088 75.584 140.268 72.5462 136.798 70.4245C133.328 68.3027 129.34 67.1767 125.272 67.1725H121.337C120.357 67.1712 119.419 67.5598 118.727 68.2519C118.035 68.9441 117.646 69.8834 117.646 70.8626V129.971C117.646 130.95 118.035 131.888 118.727 132.58C119.419 133.272 120.357 133.661 121.337 133.661H125.271C129.333 133.655 133.316 132.535 136.783 130.418C140.249 128.302 143.069 125.273 144.93 121.662C146.061 122.523 147.334 123.18 148.691 123.604V129.698C148.681 135.344 146.516 140.775 142.636 144.878C138.756 148.981 133.456 151.448 127.817 151.773C126.985 149.742 125.567 148.006 123.745 146.783C121.924 145.559 119.779 144.904 117.585 144.9H102.825C98.8695 144.9 95.2151 147.011 93.2375 150.436C91.26 153.861 91.26 158.081 93.2375 161.506C95.2151 164.931 98.8695 167.04 102.825 167.04H117.585C119.96 167.032 122.269 166.259 124.169 164.836C126.07 163.412 127.463 161.414 128.138 159.137C135.674 158.727 142.768 155.449 147.962 149.974C153.157 144.5 156.059 137.244 156.071 129.698V123.604C158.574 122.826 160.764 121.268 162.321 119.159C163.879 117.049 164.724 114.499 164.733 111.878V88.9986C164.731 86.5596 164.006 84.1769 162.652 82.1487C161.296 80.1204 159.372 78.5382 157.121 77.6016L157.12 77.6004ZM54.7279 74.6767H54.9724V126.406C51.0173 126.465 47.2035 124.938 44.3844 122.164C41.5636 119.39 39.9733 115.601 39.968 111.646V89.4367C39.9721 85.5241 41.5281 81.7723 44.2954 79.0037C47.0626 76.2365 50.8144 74.6805 54.7284 74.6763L54.7279 74.6767ZM32.5876 111.647C32.6617 112.982 32.1962 114.291 31.2953 115.278C30.3944 116.267 29.1337 116.85 27.7989 116.897C26.4627 116.945 25.1636 116.453 24.194 115.533C23.2244 114.612 22.6669 113.34 22.6449 112.004V89.125C22.6532 86.3853 24.8765 84.1673 27.6164 84.1673C30.3561 84.1673 32.5794 86.3852 32.5878 89.125L32.5876 111.647ZM117.585 159.66H102.825C100.816 159.621 99.2062 157.98 99.2062 155.97C99.2062 153.959 100.816 152.32 102.826 152.28H117.586H117.585C119.595 152.32 121.204 153.959 121.204 155.97C121.204 157.98 119.595 159.622 117.585 159.66ZM125.271 126.281H125.027V74.5519C128.982 74.4914 132.795 76.0199 135.616 78.7938C138.435 81.5679 140.026 85.3554 140.031 89.3105V111.519C140.027 115.433 138.471 119.185 135.704 121.952C132.937 124.72 129.185 126.276 125.271 126.28L125.271 126.281ZM157.354 111.878C157.314 114.595 155.1 116.778 152.382 116.778C149.665 116.778 147.451 114.596 147.411 111.878V88.9986C147.452 86.2822 149.666 84.1028 152.382 84.1028C155.099 84.1028 157.312 86.2835 157.354 88.9986V111.878Z" fill="#627A9E"/>
</svg>
