<svg width="24" height="24" viewBox="0 0 24 24" fill="none" xmlns="http://www.w3.org/2000/svg">
<g clip-path="url(#clip0_289_81)">
<path d="M1.36032 10.7409C0.800612 11.1014 0.919679 11.8518 1.53282 12.1106L6.65456 14.2715C6.73229 14.3043 6.81744 14.3155 6.90101 14.304C6.98459 14.2924 7.0635 14.2585 7.12942 14.2059L7.39474 13.9935C10.8777 11.2082 16.7101 6.54512 17.0621 6.89199C17.3466 7.17137 14.8917 9.9623 12.3229 12.8831C11.4158 13.9143 10.4947 14.9624 9.67435 15.921C9.59764 16.011 9.55789 16.1267 9.56311 16.2449C9.56833 16.363 9.61813 16.4747 9.70248 16.5576L15.676 22.4381C16.0393 22.7952 16.6051 22.7802 16.8385 22.3274C18.4942 19.1203 20.4311 8.60105 20.6861 3.87184C20.7143 3.35481 20.2947 2.93669 19.7814 3.00794C15.1448 3.65153 4.97591 8.41308 1.36032 10.7409Z" stroke="#5395F9" stroke-width="1.5" stroke-linecap="round" stroke-linejoin="round"/>
</g>
<defs>
<clipPath id="clip0_289_81">
<rect width="24.0008" height="24" fill="white"/>
</clipPath>
</defs>
</svg>
